<svg xmlns="http://www.w3.org/2000/svg" viewBox="0 0 100 100">
  <defs>
    <linearGradient id="goldGrad" x1="0%" y1="0%" x2="100%" y2="100%">
      <stop offset="0%" style="stop-color:#E8D5A3"/>
      <stop offset="50%" style="stop-color:#C9A96E"/>
      <stop offset="100%" style="stop-color:#B8860B"/>
    </linearGradient>
    <linearGradient id="sealGrad" x1="0%" y1="0%" x2="100%" y2="100%">
      <stop offset="0%" style="stop-color:#FF6B6B"/>
      <stop offset="50%" style="stop-color:#C41E3A"/>
      <stop offset="100%" style="stop-color:#8B0000"/>
    </linearGradient>
    <linearGradient id="bronzeGrad" x1="0%" y1="0%" x2="100%" y2="100%">
      <stop offset="0%" style="stop-color:#CD7F32"/>
      <stop offset="50%" style="stop-color:#B87333"/>
      <stop offset="100%" style="stop-color:#8B4513"/>
    </linearGradient>
    <radialGradient id="lanternGrad" cx="50%" cy="50%" r="50%">
      <stop offset="0%" style="stop-color:#FFD700"/>
      <stop offset="60%" style="stop-color:#FF6347"/>
      <stop offset="100%" style="stop-color:#DC143C"/>
    </radialGradient>
  </defs>
  
  <circle cx="50" cy="50" r="45" fill="#1A1410" stroke="url(#goldGrad)" stroke-width="2"/>
  
  <circle cx="50" cy="35" r="12" fill="url(#lanternGrad)" stroke="#8B4513" stroke-width="1.5"/>
  <path d="M50 28 L50 42 M44 35 L56 35" stroke="#8B4513" stroke-width="1"/>
  <path d="M50 42 L50 48 M48 48 Q50 52 52 48" fill="none" stroke="#CD7F32" stroke-width="1"/>
  
  <rect x="30" y="55" width="40" height="25" rx="2" fill="#1A1410" stroke="url(#bronzeGrad)" stroke-width="1.5"/>
  
  <rect x="34" y="59" width="7" height="17" fill="url(#bronzeGrad)"/>
  <rect x="43" y="59" width="7" height="17" fill="url(#goldGrad)"/>
  <rect x="52" y="59" width="7" height="17" fill="url(#sealGrad)"/>
  <rect x="61" y="59" width="5" height="17" fill="#1A1410" stroke="url(#goldGrad)" stroke-width="0.5"/>
  
  <circle cx="50" cy="67" r="2" fill="#FDF6EC"/>
</svg>